<mxfile host="app.diagrams.net" modified="2024-06-22T21:00:24.984Z" agent="Mozilla/5.0 (Windows NT 10.0; Win64; x64) AppleWebKit/537.36 (KHTML, like Gecko) Chrome/126.0.0.0 Safari/537.36" etag="6QNAgdJ1KeQ9muyFRSHu" version="24.6.2" type="device">
  <diagram name="Página-1" id="Akx14psYhBQZWwIDxGPP">
    <mxGraphModel dx="1591" dy="797" grid="1" gridSize="10" guides="1" tooltips="1" connect="1" arrows="1" fold="1" page="1" pageScale="1" pageWidth="827" pageHeight="1169" math="0" shadow="0">
      <root>
        <mxCell id="0" />
        <mxCell id="1" parent="0" />
        <mxCell id="zql19fYEMM5hXBJWlhrS-6" value="&lt;span style=&quot;font-size: 16px;&quot;&gt;&lt;b&gt;Guionista&lt;/b&gt;&lt;/span&gt;" style="swimlane;fontStyle=0;align=center;verticalAlign=middle;childLayout=stackLayout;horizontal=1;startSize=55;horizontalStack=0;resizeParent=1;resizeParentMax=0;resizeLast=0;collapsible=0;marginBottom=0;html=1;whiteSpace=wrap;strokeWidth=2;" parent="1" vertex="1">
          <mxGeometry x="1220" y="710" width="140" height="163" as="geometry" />
        </mxCell>
        <mxCell id="zql19fYEMM5hXBJWlhrS-7" value="&lt;font style=&quot;font-size: 14px;&quot;&gt;&lt;b style=&quot;font-size: 14px;&quot;&gt;Atributos&lt;/b&gt;&lt;/font&gt;" style="text;html=1;strokeColor=none;fillColor=none;align=center;verticalAlign=middle;spacingLeft=4;spacingRight=4;overflow=hidden;rotatable=0;points=[[0,0.5],[1,0.5]];portConstraint=eastwest;whiteSpace=wrap;fontColor=#3643FF;fontSize=14;" parent="zql19fYEMM5hXBJWlhrS-6" vertex="1">
          <mxGeometry y="55" width="140" height="20" as="geometry" />
        </mxCell>
        <mxCell id="zql19fYEMM5hXBJWlhrS-8" value="id: Int" style="text;html=1;strokeColor=none;fillColor=none;align=left;verticalAlign=middle;spacingLeft=4;spacingRight=4;overflow=hidden;rotatable=0;points=[[0,0.5],[1,0.5]];portConstraint=eastwest;whiteSpace=wrap;fontColor=#3643FF;" parent="zql19fYEMM5hXBJWlhrS-6" vertex="1">
          <mxGeometry y="75" width="140" height="20" as="geometry" />
        </mxCell>
        <mxCell id="RCFOS49VJev1arpCxQu8-42" value="nombre: varchar(50)" style="text;html=1;strokeColor=none;fillColor=none;align=left;verticalAlign=middle;spacingLeft=4;spacingRight=4;overflow=hidden;rotatable=0;points=[[0,0.5],[1,0.5]];portConstraint=eastwest;whiteSpace=wrap;fontColor=#3643FF;" vertex="1" parent="zql19fYEMM5hXBJWlhrS-6">
          <mxGeometry y="95" width="140" height="20" as="geometry" />
        </mxCell>
        <mxCell id="RCFOS49VJev1arpCxQu8-41" value="apellido: varchar(50)" style="text;html=1;strokeColor=none;fillColor=none;align=left;verticalAlign=middle;spacingLeft=4;spacingRight=4;overflow=hidden;rotatable=0;points=[[0,0.5],[1,0.5]];portConstraint=eastwest;whiteSpace=wrap;fontColor=#3643FF;" vertex="1" parent="zql19fYEMM5hXBJWlhrS-6">
          <mxGeometry y="115" width="140" height="20" as="geometry" />
        </mxCell>
        <mxCell id="zql19fYEMM5hXBJWlhrS-9" value="" style="line;strokeWidth=1;fillColor=none;align=left;verticalAlign=middle;spacingTop=-1;spacingLeft=3;spacingRight=3;rotatable=0;labelPosition=right;points=[];portConstraint=eastwest;" parent="zql19fYEMM5hXBJWlhrS-6" vertex="1">
          <mxGeometry y="135" width="140" height="8" as="geometry" />
        </mxCell>
        <mxCell id="zql19fYEMM5hXBJWlhrS-10" value="&lt;font style=&quot;font-size: 14px;&quot; color=&quot;#cc6600&quot;&gt;Métodos&lt;/font&gt;" style="text;html=1;strokeColor=none;fillColor=none;align=center;verticalAlign=middle;spacingLeft=4;spacingRight=4;overflow=hidden;rotatable=0;points=[[0,0.5],[1,0.5]];portConstraint=eastwest;whiteSpace=wrap;fontStyle=1;fontSize=14;" parent="zql19fYEMM5hXBJWlhrS-6" vertex="1">
          <mxGeometry y="143" width="140" height="20" as="geometry" />
        </mxCell>
        <mxCell id="zql19fYEMM5hXBJWlhrS-11" value="&lt;span style=&quot;font-size: 16px;&quot;&gt;&lt;b&gt;Productor&lt;/b&gt;&lt;/span&gt;" style="swimlane;fontStyle=0;align=center;verticalAlign=middle;childLayout=stackLayout;horizontal=1;startSize=55;horizontalStack=0;resizeParent=1;resizeParentMax=0;resizeLast=0;collapsible=0;marginBottom=0;html=1;whiteSpace=wrap;strokeWidth=2;" parent="1" vertex="1">
          <mxGeometry x="1220" y="530" width="140" height="163" as="geometry" />
        </mxCell>
        <mxCell id="zql19fYEMM5hXBJWlhrS-12" value="&lt;font style=&quot;font-size: 14px;&quot;&gt;&lt;b style=&quot;font-size: 14px;&quot;&gt;Atributos&lt;/b&gt;&lt;/font&gt;" style="text;html=1;strokeColor=none;fillColor=none;align=center;verticalAlign=middle;spacingLeft=4;spacingRight=4;overflow=hidden;rotatable=0;points=[[0,0.5],[1,0.5]];portConstraint=eastwest;whiteSpace=wrap;fontColor=#3643FF;fontSize=14;" parent="zql19fYEMM5hXBJWlhrS-11" vertex="1">
          <mxGeometry y="55" width="140" height="20" as="geometry" />
        </mxCell>
        <mxCell id="zql19fYEMM5hXBJWlhrS-13" value="id: Int" style="text;html=1;strokeColor=none;fillColor=none;align=left;verticalAlign=middle;spacingLeft=4;spacingRight=4;overflow=hidden;rotatable=0;points=[[0,0.5],[1,0.5]];portConstraint=eastwest;whiteSpace=wrap;fontColor=#3643FF;" parent="zql19fYEMM5hXBJWlhrS-11" vertex="1">
          <mxGeometry y="75" width="140" height="20" as="geometry" />
        </mxCell>
        <mxCell id="RCFOS49VJev1arpCxQu8-25" value="apellido: varchar(50)" style="text;html=1;strokeColor=none;fillColor=none;align=left;verticalAlign=middle;spacingLeft=4;spacingRight=4;overflow=hidden;rotatable=0;points=[[0,0.5],[1,0.5]];portConstraint=eastwest;whiteSpace=wrap;fontColor=#3643FF;" vertex="1" parent="zql19fYEMM5hXBJWlhrS-11">
          <mxGeometry y="95" width="140" height="20" as="geometry" />
        </mxCell>
        <mxCell id="RCFOS49VJev1arpCxQu8-40" value="nombre: varchar(50)" style="text;html=1;strokeColor=none;fillColor=none;align=left;verticalAlign=middle;spacingLeft=4;spacingRight=4;overflow=hidden;rotatable=0;points=[[0,0.5],[1,0.5]];portConstraint=eastwest;whiteSpace=wrap;fontColor=#3643FF;" vertex="1" parent="zql19fYEMM5hXBJWlhrS-11">
          <mxGeometry y="115" width="140" height="20" as="geometry" />
        </mxCell>
        <mxCell id="zql19fYEMM5hXBJWlhrS-14" value="" style="line;strokeWidth=1;fillColor=none;align=left;verticalAlign=middle;spacingTop=-1;spacingLeft=3;spacingRight=3;rotatable=0;labelPosition=right;points=[];portConstraint=eastwest;" parent="zql19fYEMM5hXBJWlhrS-11" vertex="1">
          <mxGeometry y="135" width="140" height="8" as="geometry" />
        </mxCell>
        <mxCell id="zql19fYEMM5hXBJWlhrS-15" value="&lt;font style=&quot;font-size: 14px;&quot; color=&quot;#cc6600&quot;&gt;Métodos&lt;/font&gt;" style="text;html=1;strokeColor=none;fillColor=none;align=center;verticalAlign=middle;spacingLeft=4;spacingRight=4;overflow=hidden;rotatable=0;points=[[0,0.5],[1,0.5]];portConstraint=eastwest;whiteSpace=wrap;fontStyle=1;fontSize=14;" parent="zql19fYEMM5hXBJWlhrS-11" vertex="1">
          <mxGeometry y="143" width="140" height="20" as="geometry" />
        </mxCell>
        <mxCell id="zql19fYEMM5hXBJWlhrS-16" value="&lt;span style=&quot;font-size: 16px;&quot;&gt;&lt;b&gt;Actores&lt;/b&gt;&lt;/span&gt;" style="swimlane;fontStyle=0;align=center;verticalAlign=middle;childLayout=stackLayout;horizontal=1;startSize=55;horizontalStack=0;resizeParent=1;resizeParentMax=0;resizeLast=0;collapsible=0;marginBottom=0;html=1;whiteSpace=wrap;strokeWidth=2;" parent="1" vertex="1">
          <mxGeometry x="20" y="710" width="140" height="163" as="geometry" />
        </mxCell>
        <mxCell id="zql19fYEMM5hXBJWlhrS-17" value="&lt;font style=&quot;font-size: 14px;&quot;&gt;&lt;b style=&quot;font-size: 14px;&quot;&gt;Atributos&lt;/b&gt;&lt;/font&gt;" style="text;html=1;strokeColor=none;fillColor=none;align=center;verticalAlign=middle;spacingLeft=4;spacingRight=4;overflow=hidden;rotatable=0;points=[[0,0.5],[1,0.5]];portConstraint=eastwest;whiteSpace=wrap;fontColor=#3643FF;fontSize=14;" parent="zql19fYEMM5hXBJWlhrS-16" vertex="1">
          <mxGeometry y="55" width="140" height="20" as="geometry" />
        </mxCell>
        <mxCell id="zql19fYEMM5hXBJWlhrS-18" value="id: Int" style="text;html=1;strokeColor=none;fillColor=none;align=left;verticalAlign=middle;spacingLeft=4;spacingRight=4;overflow=hidden;rotatable=0;points=[[0,0.5],[1,0.5]];portConstraint=eastwest;whiteSpace=wrap;fontColor=#3643FF;" parent="zql19fYEMM5hXBJWlhrS-16" vertex="1">
          <mxGeometry y="75" width="140" height="20" as="geometry" />
        </mxCell>
        <mxCell id="zql19fYEMM5hXBJWlhrS-42" value="nombre: varchar(50)" style="text;html=1;strokeColor=none;fillColor=none;align=left;verticalAlign=middle;spacingLeft=4;spacingRight=4;overflow=hidden;rotatable=0;points=[[0,0.5],[1,0.5]];portConstraint=eastwest;whiteSpace=wrap;fontColor=#3643FF;" parent="zql19fYEMM5hXBJWlhrS-16" vertex="1">
          <mxGeometry y="95" width="140" height="20" as="geometry" />
        </mxCell>
        <mxCell id="RCFOS49VJev1arpCxQu8-8" value="apellido: varchar(50)" style="text;html=1;strokeColor=none;fillColor=none;align=left;verticalAlign=middle;spacingLeft=4;spacingRight=4;overflow=hidden;rotatable=0;points=[[0,0.5],[1,0.5]];portConstraint=eastwest;whiteSpace=wrap;fontColor=#3643FF;" vertex="1" parent="zql19fYEMM5hXBJWlhrS-16">
          <mxGeometry y="115" width="140" height="20" as="geometry" />
        </mxCell>
        <mxCell id="zql19fYEMM5hXBJWlhrS-19" value="" style="line;strokeWidth=1;fillColor=none;align=left;verticalAlign=middle;spacingTop=-1;spacingLeft=3;spacingRight=3;rotatable=0;labelPosition=right;points=[];portConstraint=eastwest;" parent="zql19fYEMM5hXBJWlhrS-16" vertex="1">
          <mxGeometry y="135" width="140" height="8" as="geometry" />
        </mxCell>
        <mxCell id="zql19fYEMM5hXBJWlhrS-20" value="&lt;font style=&quot;font-size: 14px;&quot; color=&quot;#cc6600&quot;&gt;Métodos&lt;/font&gt;" style="text;html=1;strokeColor=none;fillColor=none;align=center;verticalAlign=middle;spacingLeft=4;spacingRight=4;overflow=hidden;rotatable=0;points=[[0,0.5],[1,0.5]];portConstraint=eastwest;whiteSpace=wrap;fontStyle=1;fontSize=14;" parent="zql19fYEMM5hXBJWlhrS-16" vertex="1">
          <mxGeometry y="143" width="140" height="20" as="geometry" />
        </mxCell>
        <mxCell id="zql19fYEMM5hXBJWlhrS-21" value="&lt;span style=&quot;font-size: 16px;&quot;&gt;&lt;b&gt;Genero&lt;/b&gt;&lt;/span&gt;" style="swimlane;fontStyle=0;align=center;verticalAlign=middle;childLayout=stackLayout;horizontal=1;startSize=55;horizontalStack=0;resizeParent=1;resizeParentMax=0;resizeLast=0;collapsible=0;marginBottom=0;html=1;whiteSpace=wrap;strokeWidth=2;" parent="1" vertex="1">
          <mxGeometry x="20" y="540" width="140" height="143" as="geometry" />
        </mxCell>
        <mxCell id="zql19fYEMM5hXBJWlhrS-22" value="&lt;font style=&quot;font-size: 14px;&quot;&gt;&lt;b style=&quot;font-size: 14px;&quot;&gt;Atributos&lt;/b&gt;&lt;/font&gt;" style="text;html=1;strokeColor=none;fillColor=none;align=center;verticalAlign=middle;spacingLeft=4;spacingRight=4;overflow=hidden;rotatable=0;points=[[0,0.5],[1,0.5]];portConstraint=eastwest;whiteSpace=wrap;fontColor=#3643FF;fontSize=14;" parent="zql19fYEMM5hXBJWlhrS-21" vertex="1">
          <mxGeometry y="55" width="140" height="20" as="geometry" />
        </mxCell>
        <mxCell id="zql19fYEMM5hXBJWlhrS-23" value="id: Int" style="text;html=1;strokeColor=none;fillColor=none;align=left;verticalAlign=middle;spacingLeft=4;spacingRight=4;overflow=hidden;rotatable=0;points=[[0,0.5],[1,0.5]];portConstraint=eastwest;whiteSpace=wrap;fontColor=#3643FF;" parent="zql19fYEMM5hXBJWlhrS-21" vertex="1">
          <mxGeometry y="75" width="140" height="20" as="geometry" />
        </mxCell>
        <mxCell id="zql19fYEMM5hXBJWlhrS-24" value="tipo: String" style="text;html=1;strokeColor=none;fillColor=none;align=left;verticalAlign=middle;spacingLeft=4;spacingRight=4;overflow=hidden;rotatable=0;points=[[0,0.5],[1,0.5]];portConstraint=eastwest;whiteSpace=wrap;fontColor=#3643FF;" parent="zql19fYEMM5hXBJWlhrS-21" vertex="1">
          <mxGeometry y="95" width="140" height="20" as="geometry" />
        </mxCell>
        <mxCell id="zql19fYEMM5hXBJWlhrS-25" value="" style="line;strokeWidth=1;fillColor=none;align=left;verticalAlign=middle;spacingTop=-1;spacingLeft=3;spacingRight=3;rotatable=0;labelPosition=right;points=[];portConstraint=eastwest;" parent="zql19fYEMM5hXBJWlhrS-21" vertex="1">
          <mxGeometry y="115" width="140" height="8" as="geometry" />
        </mxCell>
        <mxCell id="zql19fYEMM5hXBJWlhrS-26" value="&lt;font style=&quot;font-size: 14px;&quot; color=&quot;#cc6600&quot;&gt;Métodos&lt;/font&gt;" style="text;html=1;strokeColor=none;fillColor=none;align=center;verticalAlign=middle;spacingLeft=4;spacingRight=4;overflow=hidden;rotatable=0;points=[[0,0.5],[1,0.5]];portConstraint=eastwest;whiteSpace=wrap;fontStyle=1;fontSize=14;" parent="zql19fYEMM5hXBJWlhrS-21" vertex="1">
          <mxGeometry y="123" width="140" height="20" as="geometry" />
        </mxCell>
        <mxCell id="zql19fYEMM5hXBJWlhrS-27" value="&lt;span style=&quot;font-size: 16px;&quot;&gt;&lt;b&gt;Película&lt;/b&gt;&lt;/span&gt;" style="swimlane;fontStyle=0;align=center;verticalAlign=middle;childLayout=stackLayout;horizontal=1;startSize=55;horizontalStack=0;resizeParent=1;resizeParentMax=0;resizeLast=0;collapsible=0;marginBottom=0;html=1;whiteSpace=wrap;strokeWidth=2;" parent="1" vertex="1">
          <mxGeometry x="590" y="530" width="220" height="263" as="geometry" />
        </mxCell>
        <mxCell id="zql19fYEMM5hXBJWlhrS-28" value="&lt;font style=&quot;font-size: 14px;&quot;&gt;&lt;b style=&quot;font-size: 14px;&quot;&gt;Atributos&lt;/b&gt;&lt;/font&gt;" style="text;html=1;strokeColor=none;fillColor=none;align=center;verticalAlign=middle;spacingLeft=4;spacingRight=4;overflow=hidden;rotatable=0;points=[[0,0.5],[1,0.5]];portConstraint=eastwest;whiteSpace=wrap;fontColor=#3643FF;fontSize=14;" parent="zql19fYEMM5hXBJWlhrS-27" vertex="1">
          <mxGeometry y="55" width="220" height="20" as="geometry" />
        </mxCell>
        <mxCell id="zql19fYEMM5hXBJWlhrS-29" value="id: Int" style="text;html=1;strokeColor=none;fillColor=none;align=left;verticalAlign=middle;spacingLeft=4;spacingRight=4;overflow=hidden;rotatable=0;points=[[0,0.5],[1,0.5]];portConstraint=eastwest;whiteSpace=wrap;fontColor=#3643FF;" parent="zql19fYEMM5hXBJWlhrS-27" vertex="1">
          <mxGeometry y="75" width="220" height="20" as="geometry" />
        </mxCell>
        <mxCell id="zql19fYEMM5hXBJWlhrS-30" value="fechaLanzamiento: Date" style="text;html=1;strokeColor=none;fillColor=none;align=left;verticalAlign=middle;spacingLeft=4;spacingRight=4;overflow=hidden;rotatable=0;points=[[0,0.5],[1,0.5]];portConstraint=eastwest;whiteSpace=wrap;fontColor=#3643FF;" parent="zql19fYEMM5hXBJWlhrS-27" vertex="1">
          <mxGeometry y="95" width="220" height="20" as="geometry" />
        </mxCell>
        <mxCell id="zql19fYEMM5hXBJWlhrS-31" value="fechaLanzamiento: Date" style="text;html=1;strokeColor=none;fillColor=none;align=left;verticalAlign=middle;spacingLeft=4;spacingRight=4;overflow=hidden;rotatable=0;points=[[0,0.5],[1,0.5]];portConstraint=eastwest;whiteSpace=wrap;fontColor=#3643FF;" parent="zql19fYEMM5hXBJWlhrS-27" vertex="1">
          <mxGeometry y="115" width="220" height="20" as="geometry" />
        </mxCell>
        <mxCell id="zql19fYEMM5hXBJWlhrS-32" value="puntuacion: Int" style="text;html=1;strokeColor=none;fillColor=none;align=left;verticalAlign=middle;spacingLeft=4;spacingRight=4;overflow=hidden;rotatable=0;points=[[0,0.5],[1,0.5]];portConstraint=eastwest;whiteSpace=wrap;fontColor=#3643FF;" parent="zql19fYEMM5hXBJWlhrS-27" vertex="1">
          <mxGeometry y="135" width="220" height="20" as="geometry" />
        </mxCell>
        <mxCell id="zql19fYEMM5hXBJWlhrS-33" value="duracion: Time" style="text;html=1;strokeColor=none;fillColor=none;align=left;verticalAlign=middle;spacingLeft=4;spacingRight=4;overflow=hidden;rotatable=0;points=[[0,0.5],[1,0.5]];portConstraint=eastwest;whiteSpace=wrap;fontColor=#3643FF;" parent="zql19fYEMM5hXBJWlhrS-27" vertex="1">
          <mxGeometry y="155" width="220" height="20" as="geometry" />
        </mxCell>
        <mxCell id="zql19fYEMM5hXBJWlhrS-34" value="descripcion: String" style="text;html=1;strokeColor=none;fillColor=none;align=left;verticalAlign=middle;spacingLeft=4;spacingRight=4;overflow=hidden;rotatable=0;points=[[0,0.5],[1,0.5]];portConstraint=eastwest;whiteSpace=wrap;fontColor=#3643FF;" parent="zql19fYEMM5hXBJWlhrS-27" vertex="1">
          <mxGeometry y="175" width="220" height="20" as="geometry" />
        </mxCell>
        <mxCell id="zql19fYEMM5hXBJWlhrS-35" value="idioma: String" style="text;html=1;strokeColor=none;fillColor=none;align=left;verticalAlign=middle;spacingLeft=4;spacingRight=4;overflow=hidden;rotatable=0;points=[[0,0.5],[1,0.5]];portConstraint=eastwest;whiteSpace=wrap;fontColor=#3643FF;" parent="zql19fYEMM5hXBJWlhrS-27" vertex="1">
          <mxGeometry y="195" width="220" height="20" as="geometry" />
        </mxCell>
        <mxCell id="zql19fYEMM5hXBJWlhrS-36" value="estrenada: Boolean" style="text;html=1;strokeColor=none;fillColor=none;align=left;verticalAlign=middle;spacingLeft=4;spacingRight=4;overflow=hidden;rotatable=0;points=[[0,0.5],[1,0.5]];portConstraint=eastwest;whiteSpace=wrap;fontColor=#3643FF;" parent="zql19fYEMM5hXBJWlhrS-27" vertex="1">
          <mxGeometry y="215" width="220" height="20" as="geometry" />
        </mxCell>
        <mxCell id="zql19fYEMM5hXBJWlhrS-37" value="" style="line;strokeWidth=1;fillColor=none;align=left;verticalAlign=middle;spacingTop=-1;spacingLeft=3;spacingRight=3;rotatable=0;labelPosition=right;points=[];portConstraint=eastwest;" parent="zql19fYEMM5hXBJWlhrS-27" vertex="1">
          <mxGeometry y="235" width="220" height="8" as="geometry" />
        </mxCell>
        <mxCell id="zql19fYEMM5hXBJWlhrS-38" value="&lt;font style=&quot;font-size: 14px;&quot; color=&quot;#cc6600&quot;&gt;Métodos&lt;/font&gt;" style="text;html=1;strokeColor=none;fillColor=none;align=center;verticalAlign=middle;spacingLeft=4;spacingRight=4;overflow=hidden;rotatable=0;points=[[0,0.5],[1,0.5]];portConstraint=eastwest;whiteSpace=wrap;fontStyle=1;fontSize=14;" parent="zql19fYEMM5hXBJWlhrS-27" vertex="1">
          <mxGeometry y="243" width="220" height="20" as="geometry" />
        </mxCell>
        <mxCell id="zql19fYEMM5hXBJWlhrS-39" value="&lt;span style=&quot;font-size: 16px;&quot;&gt;&lt;b&gt;pelis_genero&lt;/b&gt;&lt;/span&gt;" style="swimlane;fontStyle=0;align=center;verticalAlign=middle;childLayout=stackLayout;horizontal=1;startSize=55;horizontalStack=0;resizeParent=1;resizeParentMax=0;resizeLast=0;collapsible=0;marginBottom=0;html=1;whiteSpace=wrap;strokeWidth=2;" parent="1" vertex="1">
          <mxGeometry x="270" y="540" width="140" height="138" as="geometry" />
        </mxCell>
        <mxCell id="zql19fYEMM5hXBJWlhrS-40" value="&lt;font style=&quot;font-size: 14px;&quot;&gt;&lt;b style=&quot;font-size: 14px;&quot;&gt;Atributos&lt;/b&gt;&lt;/font&gt;" style="text;html=1;strokeColor=none;fillColor=none;align=center;verticalAlign=middle;spacingLeft=4;spacingRight=4;overflow=hidden;rotatable=0;points=[[0,0.5],[1,0.5]];portConstraint=eastwest;whiteSpace=wrap;fontColor=#3643FF;fontSize=14;" parent="zql19fYEMM5hXBJWlhrS-39" vertex="1">
          <mxGeometry y="55" width="140" height="20" as="geometry" />
        </mxCell>
        <mxCell id="zql19fYEMM5hXBJWlhrS-41" value="pelicula_id: Int" style="text;html=1;strokeColor=none;fillColor=none;align=left;verticalAlign=middle;spacingLeft=4;spacingRight=4;overflow=hidden;rotatable=0;points=[[0,0.5],[1,0.5]];portConstraint=eastwest;whiteSpace=wrap;fontColor=#3643FF;" parent="zql19fYEMM5hXBJWlhrS-39" vertex="1">
          <mxGeometry y="75" width="140" height="20" as="geometry" />
        </mxCell>
        <mxCell id="RCFOS49VJev1arpCxQu8-7" value="genero_id: int" style="text;html=1;strokeColor=none;fillColor=none;align=left;verticalAlign=middle;spacingLeft=4;spacingRight=4;overflow=hidden;rotatable=0;points=[[0,0.5],[1,0.5]];portConstraint=eastwest;whiteSpace=wrap;fontColor=#3643FF;" vertex="1" parent="zql19fYEMM5hXBJWlhrS-39">
          <mxGeometry y="95" width="140" height="15" as="geometry" />
        </mxCell>
        <mxCell id="zql19fYEMM5hXBJWlhrS-43" value="" style="line;strokeWidth=1;fillColor=none;align=left;verticalAlign=middle;spacingTop=-1;spacingLeft=3;spacingRight=3;rotatable=0;labelPosition=right;points=[];portConstraint=eastwest;" parent="zql19fYEMM5hXBJWlhrS-39" vertex="1">
          <mxGeometry y="110" width="140" height="8" as="geometry" />
        </mxCell>
        <mxCell id="zql19fYEMM5hXBJWlhrS-44" value="&lt;font style=&quot;font-size: 14px;&quot; color=&quot;#cc6600&quot;&gt;Métodos&lt;/font&gt;" style="text;html=1;strokeColor=none;fillColor=none;align=center;verticalAlign=middle;spacingLeft=4;spacingRight=4;overflow=hidden;rotatable=0;points=[[0,0.5],[1,0.5]];portConstraint=eastwest;whiteSpace=wrap;fontStyle=1;fontSize=14;" parent="zql19fYEMM5hXBJWlhrS-39" vertex="1">
          <mxGeometry y="118" width="140" height="20" as="geometry" />
        </mxCell>
        <mxCell id="RCFOS49VJev1arpCxQu8-1" value="" style="endArrow=none;html=1;rounded=0;exitX=1;exitY=0.5;exitDx=0;exitDy=0;entryX=1.133;entryY=1;entryDx=0;entryDy=0;entryPerimeter=0;" edge="1" parent="1" source="zql19fYEMM5hXBJWlhrS-41" target="RCFOS49VJev1arpCxQu8-3">
          <mxGeometry relative="1" as="geometry">
            <mxPoint x="400" y="640" as="sourcePoint" />
            <mxPoint x="650" y="620" as="targetPoint" />
          </mxGeometry>
        </mxCell>
        <mxCell id="RCFOS49VJev1arpCxQu8-2" value="N" style="text;html=1;align=center;verticalAlign=middle;resizable=0;points=[];autosize=1;strokeColor=none;fillColor=none;fontStyle=1;fontSize=13;" vertex="1" parent="1">
          <mxGeometry x="410" y="596.5" width="30" height="30" as="geometry" />
        </mxCell>
        <mxCell id="RCFOS49VJev1arpCxQu8-3" value="1" style="text;html=1;align=center;verticalAlign=middle;resizable=0;points=[];autosize=1;strokeColor=none;fillColor=none;fontStyle=1;labelBackgroundColor=default;fontSize=13;" vertex="1" parent="1">
          <mxGeometry x="560" y="594" width="30" height="30" as="geometry" />
        </mxCell>
        <mxCell id="RCFOS49VJev1arpCxQu8-4" value="" style="endArrow=none;html=1;rounded=0;exitX=1;exitY=0.5;exitDx=0;exitDy=0;" edge="1" parent="1" source="zql19fYEMM5hXBJWlhrS-23">
          <mxGeometry relative="1" as="geometry">
            <mxPoint x="400" y="640" as="sourcePoint" />
            <mxPoint x="270" y="625" as="targetPoint" />
          </mxGeometry>
        </mxCell>
        <mxCell id="RCFOS49VJev1arpCxQu8-5" value="N" style="text;html=1;align=center;verticalAlign=middle;resizable=0;points=[];autosize=1;strokeColor=none;fillColor=none;fontStyle=1;fontSize=13;" vertex="1" parent="1">
          <mxGeometry x="240" y="596.5" width="30" height="30" as="geometry" />
        </mxCell>
        <mxCell id="RCFOS49VJev1arpCxQu8-6" value="1" style="text;html=1;align=center;verticalAlign=middle;resizable=0;points=[];autosize=1;strokeColor=none;fillColor=none;fontStyle=1;labelBackgroundColor=default;fontSize=13;" vertex="1" parent="1">
          <mxGeometry x="160" y="596.5" width="30" height="30" as="geometry" />
        </mxCell>
        <mxCell id="RCFOS49VJev1arpCxQu8-9" value="&lt;span style=&quot;font-size: 16px;&quot;&gt;&lt;b&gt;pelis_actores&lt;/b&gt;&lt;/span&gt;" style="swimlane;fontStyle=0;align=center;verticalAlign=middle;childLayout=stackLayout;horizontal=1;startSize=55;horizontalStack=0;resizeParent=1;resizeParentMax=0;resizeLast=0;collapsible=0;marginBottom=0;html=1;whiteSpace=wrap;strokeWidth=2;" vertex="1" parent="1">
          <mxGeometry x="274" y="710" width="140" height="143" as="geometry" />
        </mxCell>
        <mxCell id="RCFOS49VJev1arpCxQu8-10" value="&lt;font style=&quot;font-size: 14px;&quot;&gt;&lt;b style=&quot;font-size: 14px;&quot;&gt;Atributos&lt;/b&gt;&lt;/font&gt;" style="text;html=1;strokeColor=none;fillColor=none;align=center;verticalAlign=middle;spacingLeft=4;spacingRight=4;overflow=hidden;rotatable=0;points=[[0,0.5],[1,0.5]];portConstraint=eastwest;whiteSpace=wrap;fontColor=#3643FF;fontSize=14;" vertex="1" parent="RCFOS49VJev1arpCxQu8-9">
          <mxGeometry y="55" width="140" height="20" as="geometry" />
        </mxCell>
        <mxCell id="RCFOS49VJev1arpCxQu8-11" value="pelicula_id: Int" style="text;html=1;strokeColor=none;fillColor=none;align=left;verticalAlign=middle;spacingLeft=4;spacingRight=4;overflow=hidden;rotatable=0;points=[[0,0.5],[1,0.5]];portConstraint=eastwest;whiteSpace=wrap;fontColor=#3643FF;" vertex="1" parent="RCFOS49VJev1arpCxQu8-9">
          <mxGeometry y="75" width="140" height="20" as="geometry" />
        </mxCell>
        <mxCell id="RCFOS49VJev1arpCxQu8-12" value="actor_id: Int" style="text;html=1;strokeColor=none;fillColor=none;align=left;verticalAlign=middle;spacingLeft=4;spacingRight=4;overflow=hidden;rotatable=0;points=[[0,0.5],[1,0.5]];portConstraint=eastwest;whiteSpace=wrap;fontColor=#3643FF;" vertex="1" parent="RCFOS49VJev1arpCxQu8-9">
          <mxGeometry y="95" width="140" height="20" as="geometry" />
        </mxCell>
        <mxCell id="RCFOS49VJev1arpCxQu8-14" value="" style="line;strokeWidth=1;fillColor=none;align=left;verticalAlign=middle;spacingTop=-1;spacingLeft=3;spacingRight=3;rotatable=0;labelPosition=right;points=[];portConstraint=eastwest;" vertex="1" parent="RCFOS49VJev1arpCxQu8-9">
          <mxGeometry y="115" width="140" height="8" as="geometry" />
        </mxCell>
        <mxCell id="RCFOS49VJev1arpCxQu8-15" value="&lt;font style=&quot;font-size: 14px;&quot; color=&quot;#cc6600&quot;&gt;Métodos&lt;/font&gt;" style="text;html=1;strokeColor=none;fillColor=none;align=center;verticalAlign=middle;spacingLeft=4;spacingRight=4;overflow=hidden;rotatable=0;points=[[0,0.5],[1,0.5]];portConstraint=eastwest;whiteSpace=wrap;fontStyle=1;fontSize=14;" vertex="1" parent="RCFOS49VJev1arpCxQu8-9">
          <mxGeometry y="123" width="140" height="20" as="geometry" />
        </mxCell>
        <mxCell id="RCFOS49VJev1arpCxQu8-16" value="" style="endArrow=none;html=1;rounded=0;exitX=1;exitY=0.5;exitDx=0;exitDy=0;" edge="1" parent="1">
          <mxGeometry relative="1" as="geometry">
            <mxPoint x="160" y="800" as="sourcePoint" />
            <mxPoint x="270" y="800" as="targetPoint" />
          </mxGeometry>
        </mxCell>
        <mxCell id="RCFOS49VJev1arpCxQu8-17" value="1" style="text;html=1;align=center;verticalAlign=middle;resizable=0;points=[];autosize=1;strokeColor=none;fillColor=none;fontStyle=1;labelBackgroundColor=default;fontSize=13;" vertex="1" parent="1">
          <mxGeometry x="560" y="720" width="30" height="30" as="geometry" />
        </mxCell>
        <mxCell id="RCFOS49VJev1arpCxQu8-19" value="1" style="text;html=1;align=center;verticalAlign=middle;resizable=0;points=[];autosize=1;strokeColor=none;fillColor=none;fontStyle=1;labelBackgroundColor=default;fontSize=13;" vertex="1" parent="1">
          <mxGeometry x="160" y="770" width="30" height="30" as="geometry" />
        </mxCell>
        <mxCell id="RCFOS49VJev1arpCxQu8-20" value="N" style="text;html=1;align=center;verticalAlign=middle;resizable=0;points=[];autosize=1;strokeColor=none;fillColor=none;fontStyle=1;fontSize=13;" vertex="1" parent="1">
          <mxGeometry x="240" y="770" width="30" height="30" as="geometry" />
        </mxCell>
        <mxCell id="RCFOS49VJev1arpCxQu8-21" value="" style="endArrow=none;html=1;rounded=0;exitX=1;exitY=0.5;exitDx=0;exitDy=0;entryX=0;entryY=0.15;entryDx=0;entryDy=0;entryPerimeter=0;" edge="1" parent="1" target="zql19fYEMM5hXBJWlhrS-36">
          <mxGeometry relative="1" as="geometry">
            <mxPoint x="414" y="748" as="sourcePoint" />
            <mxPoint x="580" y="750" as="targetPoint" />
          </mxGeometry>
        </mxCell>
        <mxCell id="RCFOS49VJev1arpCxQu8-22" value="N" style="text;html=1;align=center;verticalAlign=middle;resizable=0;points=[];autosize=1;strokeColor=none;fillColor=none;fontStyle=1;fontSize=13;" vertex="1" parent="1">
          <mxGeometry x="420" y="720" width="30" height="30" as="geometry" />
        </mxCell>
        <mxCell id="RCFOS49VJev1arpCxQu8-26" value="&lt;span style=&quot;font-size: 16px;&quot;&gt;&lt;b&gt;pelis_productores&lt;/b&gt;&lt;/span&gt;" style="swimlane;fontStyle=0;align=center;verticalAlign=middle;childLayout=stackLayout;horizontal=1;startSize=55;horizontalStack=0;resizeParent=1;resizeParentMax=0;resizeLast=0;collapsible=0;marginBottom=0;html=1;whiteSpace=wrap;strokeWidth=2;" vertex="1" parent="1">
          <mxGeometry x="940" y="540" width="140" height="143" as="geometry" />
        </mxCell>
        <mxCell id="RCFOS49VJev1arpCxQu8-27" value="&lt;font style=&quot;font-size: 14px;&quot;&gt;&lt;b style=&quot;font-size: 14px;&quot;&gt;Atributos&lt;/b&gt;&lt;/font&gt;" style="text;html=1;strokeColor=none;fillColor=none;align=center;verticalAlign=middle;spacingLeft=4;spacingRight=4;overflow=hidden;rotatable=0;points=[[0,0.5],[1,0.5]];portConstraint=eastwest;whiteSpace=wrap;fontColor=#3643FF;fontSize=14;" vertex="1" parent="RCFOS49VJev1arpCxQu8-26">
          <mxGeometry y="55" width="140" height="20" as="geometry" />
        </mxCell>
        <mxCell id="RCFOS49VJev1arpCxQu8-28" value="pelicula_id: Int" style="text;html=1;strokeColor=none;fillColor=none;align=left;verticalAlign=middle;spacingLeft=4;spacingRight=4;overflow=hidden;rotatable=0;points=[[0,0.5],[1,0.5]];portConstraint=eastwest;whiteSpace=wrap;fontColor=#3643FF;" vertex="1" parent="RCFOS49VJev1arpCxQu8-26">
          <mxGeometry y="75" width="140" height="20" as="geometry" />
        </mxCell>
        <mxCell id="RCFOS49VJev1arpCxQu8-30" value="productor_id: int" style="text;html=1;strokeColor=none;fillColor=none;align=left;verticalAlign=middle;spacingLeft=4;spacingRight=4;overflow=hidden;rotatable=0;points=[[0,0.5],[1,0.5]];portConstraint=eastwest;whiteSpace=wrap;fontColor=#3643FF;" vertex="1" parent="RCFOS49VJev1arpCxQu8-26">
          <mxGeometry y="95" width="140" height="20" as="geometry" />
        </mxCell>
        <mxCell id="RCFOS49VJev1arpCxQu8-31" value="" style="line;strokeWidth=1;fillColor=none;align=left;verticalAlign=middle;spacingTop=-1;spacingLeft=3;spacingRight=3;rotatable=0;labelPosition=right;points=[];portConstraint=eastwest;" vertex="1" parent="RCFOS49VJev1arpCxQu8-26">
          <mxGeometry y="115" width="140" height="8" as="geometry" />
        </mxCell>
        <mxCell id="RCFOS49VJev1arpCxQu8-32" value="&lt;font style=&quot;font-size: 14px;&quot; color=&quot;#cc6600&quot;&gt;Métodos&lt;/font&gt;" style="text;html=1;strokeColor=none;fillColor=none;align=center;verticalAlign=middle;spacingLeft=4;spacingRight=4;overflow=hidden;rotatable=0;points=[[0,0.5],[1,0.5]];portConstraint=eastwest;whiteSpace=wrap;fontStyle=1;fontSize=14;" vertex="1" parent="RCFOS49VJev1arpCxQu8-26">
          <mxGeometry y="123" width="140" height="20" as="geometry" />
        </mxCell>
        <mxCell id="RCFOS49VJev1arpCxQu8-33" value="" style="endArrow=none;html=1;rounded=0;exitX=1;exitY=0.5;exitDx=0;exitDy=0;entryX=0.007;entryY=-0.4;entryDx=0;entryDy=0;entryPerimeter=0;" edge="1" parent="1">
          <mxGeometry relative="1" as="geometry">
            <mxPoint x="810" y="626.5" as="sourcePoint" />
            <mxPoint x="940.98" y="627" as="targetPoint" />
          </mxGeometry>
        </mxCell>
        <mxCell id="RCFOS49VJev1arpCxQu8-34" value="1" style="text;html=1;align=center;verticalAlign=middle;resizable=0;points=[];autosize=1;strokeColor=none;fillColor=none;fontStyle=1;labelBackgroundColor=default;fontSize=13;" vertex="1" parent="1">
          <mxGeometry x="820" y="596.5" width="30" height="30" as="geometry" />
        </mxCell>
        <mxCell id="RCFOS49VJev1arpCxQu8-35" value="N" style="text;html=1;align=center;verticalAlign=middle;resizable=0;points=[];autosize=1;strokeColor=none;fillColor=none;fontStyle=1;fontSize=13;" vertex="1" parent="1">
          <mxGeometry x="910" y="594" width="30" height="30" as="geometry" />
        </mxCell>
        <mxCell id="RCFOS49VJev1arpCxQu8-36" value="" style="endArrow=none;html=1;rounded=0;exitX=1;exitY=0.5;exitDx=0;exitDy=0;entryX=1;entryY=0.95;entryDx=0;entryDy=0;entryPerimeter=0;" edge="1" parent="1" target="RCFOS49VJev1arpCxQu8-39">
          <mxGeometry relative="1" as="geometry">
            <mxPoint x="1080" y="624" as="sourcePoint" />
            <mxPoint x="1210.98" y="624.5" as="targetPoint" />
          </mxGeometry>
        </mxCell>
        <mxCell id="RCFOS49VJev1arpCxQu8-37" value="N" style="text;html=1;align=center;verticalAlign=middle;resizable=0;points=[];autosize=1;strokeColor=none;fillColor=none;fontStyle=1;fontSize=13;" vertex="1" parent="1">
          <mxGeometry x="1080" y="596.5" width="30" height="30" as="geometry" />
        </mxCell>
        <mxCell id="RCFOS49VJev1arpCxQu8-39" value="1" style="text;html=1;align=center;verticalAlign=middle;resizable=0;points=[];autosize=1;strokeColor=none;fillColor=none;fontStyle=1;labelBackgroundColor=default;fontSize=13;" vertex="1" parent="1">
          <mxGeometry x="1190" y="596.5" width="30" height="30" as="geometry" />
        </mxCell>
        <mxCell id="RCFOS49VJev1arpCxQu8-43" value="&lt;span style=&quot;font-size: 16px;&quot;&gt;&lt;b&gt;pelis_guionistas&lt;/b&gt;&lt;/span&gt;" style="swimlane;fontStyle=0;align=center;verticalAlign=middle;childLayout=stackLayout;horizontal=1;startSize=55;horizontalStack=0;resizeParent=1;resizeParentMax=0;resizeLast=0;collapsible=0;marginBottom=0;html=1;whiteSpace=wrap;strokeWidth=2;" vertex="1" parent="1">
          <mxGeometry x="940" y="703" width="140" height="143" as="geometry" />
        </mxCell>
        <mxCell id="RCFOS49VJev1arpCxQu8-44" value="&lt;font style=&quot;font-size: 14px;&quot;&gt;&lt;b style=&quot;font-size: 14px;&quot;&gt;Atributos&lt;/b&gt;&lt;/font&gt;" style="text;html=1;strokeColor=none;fillColor=none;align=center;verticalAlign=middle;spacingLeft=4;spacingRight=4;overflow=hidden;rotatable=0;points=[[0,0.5],[1,0.5]];portConstraint=eastwest;whiteSpace=wrap;fontColor=#3643FF;fontSize=14;" vertex="1" parent="RCFOS49VJev1arpCxQu8-43">
          <mxGeometry y="55" width="140" height="20" as="geometry" />
        </mxCell>
        <mxCell id="RCFOS49VJev1arpCxQu8-45" value="pelicula_id: Int" style="text;html=1;strokeColor=none;fillColor=none;align=left;verticalAlign=middle;spacingLeft=4;spacingRight=4;overflow=hidden;rotatable=0;points=[[0,0.5],[1,0.5]];portConstraint=eastwest;whiteSpace=wrap;fontColor=#3643FF;" vertex="1" parent="RCFOS49VJev1arpCxQu8-43">
          <mxGeometry y="75" width="140" height="20" as="geometry" />
        </mxCell>
        <mxCell id="RCFOS49VJev1arpCxQu8-46" value="guionista_id: int" style="text;html=1;strokeColor=none;fillColor=none;align=left;verticalAlign=middle;spacingLeft=4;spacingRight=4;overflow=hidden;rotatable=0;points=[[0,0.5],[1,0.5]];portConstraint=eastwest;whiteSpace=wrap;fontColor=#3643FF;" vertex="1" parent="RCFOS49VJev1arpCxQu8-43">
          <mxGeometry y="95" width="140" height="20" as="geometry" />
        </mxCell>
        <mxCell id="RCFOS49VJev1arpCxQu8-47" value="" style="line;strokeWidth=1;fillColor=none;align=left;verticalAlign=middle;spacingTop=-1;spacingLeft=3;spacingRight=3;rotatable=0;labelPosition=right;points=[];portConstraint=eastwest;" vertex="1" parent="RCFOS49VJev1arpCxQu8-43">
          <mxGeometry y="115" width="140" height="8" as="geometry" />
        </mxCell>
        <mxCell id="RCFOS49VJev1arpCxQu8-48" value="&lt;font style=&quot;font-size: 14px;&quot; color=&quot;#cc6600&quot;&gt;Métodos&lt;/font&gt;" style="text;html=1;strokeColor=none;fillColor=none;align=center;verticalAlign=middle;spacingLeft=4;spacingRight=4;overflow=hidden;rotatable=0;points=[[0,0.5],[1,0.5]];portConstraint=eastwest;whiteSpace=wrap;fontStyle=1;fontSize=14;" vertex="1" parent="RCFOS49VJev1arpCxQu8-43">
          <mxGeometry y="123" width="140" height="20" as="geometry" />
        </mxCell>
        <mxCell id="RCFOS49VJev1arpCxQu8-49" value="" style="endArrow=none;html=1;rounded=0;exitX=1;exitY=0.5;exitDx=0;exitDy=0;entryX=0.007;entryY=-0.2;entryDx=0;entryDy=0;entryPerimeter=0;" edge="1" parent="1" source="zql19fYEMM5hXBJWlhrS-36" target="RCFOS49VJev1arpCxQu8-44">
          <mxGeometry relative="1" as="geometry">
            <mxPoint x="820" y="760" as="sourcePoint" />
            <mxPoint x="940" y="760" as="targetPoint" />
          </mxGeometry>
        </mxCell>
        <mxCell id="RCFOS49VJev1arpCxQu8-50" value="" style="endArrow=none;html=1;rounded=0;entryX=-0.029;entryY=-0.1;entryDx=0;entryDy=0;entryPerimeter=0;exitX=0.971;exitY=0.15;exitDx=0;exitDy=0;exitPerimeter=0;" edge="1" parent="1" source="RCFOS49VJev1arpCxQu8-44" target="zql19fYEMM5hXBJWlhrS-7">
          <mxGeometry relative="1" as="geometry">
            <mxPoint x="1100" y="782" as="sourcePoint" />
            <mxPoint x="1231" y="781" as="targetPoint" />
          </mxGeometry>
        </mxCell>
        <mxCell id="RCFOS49VJev1arpCxQu8-52" value="1" style="text;html=1;align=center;verticalAlign=middle;resizable=0;points=[];autosize=1;strokeColor=none;fillColor=none;fontStyle=1;labelBackgroundColor=default;fontSize=13;" vertex="1" parent="1">
          <mxGeometry x="810" y="720" width="30" height="30" as="geometry" />
        </mxCell>
        <mxCell id="RCFOS49VJev1arpCxQu8-53" value="N" style="text;html=1;align=center;verticalAlign=middle;resizable=0;points=[];autosize=1;strokeColor=none;fillColor=none;fontStyle=1;fontSize=13;" vertex="1" parent="1">
          <mxGeometry x="910" y="720" width="30" height="30" as="geometry" />
        </mxCell>
        <mxCell id="RCFOS49VJev1arpCxQu8-54" value="N" style="text;html=1;align=center;verticalAlign=middle;resizable=0;points=[];autosize=1;strokeColor=none;fillColor=none;fontStyle=1;fontSize=13;" vertex="1" parent="1">
          <mxGeometry x="1080" y="730" width="30" height="30" as="geometry" />
        </mxCell>
        <mxCell id="RCFOS49VJev1arpCxQu8-55" value="1" style="text;html=1;align=center;verticalAlign=middle;resizable=0;points=[];autosize=1;strokeColor=none;fillColor=none;fontStyle=1;labelBackgroundColor=default;fontSize=13;" vertex="1" parent="1">
          <mxGeometry x="1190" y="730" width="30" height="30" as="geometry" />
        </mxCell>
        <mxCell id="RCFOS49VJev1arpCxQu8-73" value="&lt;span style=&quot;font-size: 16px;&quot;&gt;&lt;b&gt;Director&lt;/b&gt;&lt;/span&gt;" style="swimlane;fontStyle=0;align=center;verticalAlign=middle;childLayout=stackLayout;horizontal=1;startSize=55;horizontalStack=0;resizeParent=1;resizeParentMax=0;resizeLast=0;collapsible=0;marginBottom=0;html=1;whiteSpace=wrap;strokeWidth=2;" vertex="1" parent="1">
          <mxGeometry x="910" y="270" width="140" height="163" as="geometry" />
        </mxCell>
        <mxCell id="RCFOS49VJev1arpCxQu8-74" value="&lt;font style=&quot;font-size: 14px;&quot;&gt;&lt;b style=&quot;font-size: 14px;&quot;&gt;Atributos&lt;/b&gt;&lt;/font&gt;" style="text;html=1;strokeColor=none;fillColor=none;align=center;verticalAlign=middle;spacingLeft=4;spacingRight=4;overflow=hidden;rotatable=0;points=[[0,0.5],[1,0.5]];portConstraint=eastwest;whiteSpace=wrap;fontColor=#3643FF;fontSize=14;" vertex="1" parent="RCFOS49VJev1arpCxQu8-73">
          <mxGeometry y="55" width="140" height="20" as="geometry" />
        </mxCell>
        <mxCell id="RCFOS49VJev1arpCxQu8-75" value="id: Int" style="text;html=1;strokeColor=none;fillColor=none;align=left;verticalAlign=middle;spacingLeft=4;spacingRight=4;overflow=hidden;rotatable=0;points=[[0,0.5],[1,0.5]];portConstraint=eastwest;whiteSpace=wrap;fontColor=#3643FF;" vertex="1" parent="RCFOS49VJev1arpCxQu8-73">
          <mxGeometry y="75" width="140" height="20" as="geometry" />
        </mxCell>
        <mxCell id="RCFOS49VJev1arpCxQu8-76" value="nombre: varchar(50)" style="text;html=1;strokeColor=none;fillColor=none;align=left;verticalAlign=middle;spacingLeft=4;spacingRight=4;overflow=hidden;rotatable=0;points=[[0,0.5],[1,0.5]];portConstraint=eastwest;whiteSpace=wrap;fontColor=#3643FF;" vertex="1" parent="RCFOS49VJev1arpCxQu8-73">
          <mxGeometry y="95" width="140" height="20" as="geometry" />
        </mxCell>
        <mxCell id="RCFOS49VJev1arpCxQu8-77" value="apellido: varchar(50)" style="text;html=1;strokeColor=none;fillColor=none;align=left;verticalAlign=middle;spacingLeft=4;spacingRight=4;overflow=hidden;rotatable=0;points=[[0,0.5],[1,0.5]];portConstraint=eastwest;whiteSpace=wrap;fontColor=#3643FF;" vertex="1" parent="RCFOS49VJev1arpCxQu8-73">
          <mxGeometry y="115" width="140" height="20" as="geometry" />
        </mxCell>
        <mxCell id="RCFOS49VJev1arpCxQu8-78" value="" style="line;strokeWidth=1;fillColor=none;align=left;verticalAlign=middle;spacingTop=-1;spacingLeft=3;spacingRight=3;rotatable=0;labelPosition=right;points=[];portConstraint=eastwest;" vertex="1" parent="RCFOS49VJev1arpCxQu8-73">
          <mxGeometry y="135" width="140" height="8" as="geometry" />
        </mxCell>
        <mxCell id="RCFOS49VJev1arpCxQu8-79" value="&lt;font style=&quot;font-size: 14px;&quot; color=&quot;#cc6600&quot;&gt;Métodos&lt;/font&gt;" style="text;html=1;strokeColor=none;fillColor=none;align=center;verticalAlign=middle;spacingLeft=4;spacingRight=4;overflow=hidden;rotatable=0;points=[[0,0.5],[1,0.5]];portConstraint=eastwest;whiteSpace=wrap;fontStyle=1;fontSize=14;" vertex="1" parent="RCFOS49VJev1arpCxQu8-73">
          <mxGeometry y="143" width="140" height="20" as="geometry" />
        </mxCell>
        <mxCell id="RCFOS49VJev1arpCxQu8-80" value="&lt;span style=&quot;font-size: 16px;&quot;&gt;&lt;b&gt;pelis_director&lt;/b&gt;&lt;/span&gt;" style="swimlane;fontStyle=0;align=center;verticalAlign=middle;childLayout=stackLayout;horizontal=1;startSize=55;horizontalStack=0;resizeParent=1;resizeParentMax=0;resizeLast=0;collapsible=0;marginBottom=0;html=1;whiteSpace=wrap;strokeWidth=2;" vertex="1" parent="1">
          <mxGeometry x="630" y="290" width="140" height="143" as="geometry" />
        </mxCell>
        <mxCell id="RCFOS49VJev1arpCxQu8-81" value="&lt;font style=&quot;font-size: 14px;&quot;&gt;&lt;b style=&quot;font-size: 14px;&quot;&gt;Atributos&lt;/b&gt;&lt;/font&gt;" style="text;html=1;strokeColor=none;fillColor=none;align=center;verticalAlign=middle;spacingLeft=4;spacingRight=4;overflow=hidden;rotatable=0;points=[[0,0.5],[1,0.5]];portConstraint=eastwest;whiteSpace=wrap;fontColor=#3643FF;fontSize=14;" vertex="1" parent="RCFOS49VJev1arpCxQu8-80">
          <mxGeometry y="55" width="140" height="20" as="geometry" />
        </mxCell>
        <mxCell id="RCFOS49VJev1arpCxQu8-82" value="pelicula_id: Int" style="text;html=1;strokeColor=none;fillColor=none;align=left;verticalAlign=middle;spacingLeft=4;spacingRight=4;overflow=hidden;rotatable=0;points=[[0,0.5],[1,0.5]];portConstraint=eastwest;whiteSpace=wrap;fontColor=#3643FF;" vertex="1" parent="RCFOS49VJev1arpCxQu8-80">
          <mxGeometry y="75" width="140" height="20" as="geometry" />
        </mxCell>
        <mxCell id="RCFOS49VJev1arpCxQu8-83" value="director_id: int" style="text;html=1;strokeColor=none;fillColor=none;align=left;verticalAlign=middle;spacingLeft=4;spacingRight=4;overflow=hidden;rotatable=0;points=[[0,0.5],[1,0.5]];portConstraint=eastwest;whiteSpace=wrap;fontColor=#3643FF;" vertex="1" parent="RCFOS49VJev1arpCxQu8-80">
          <mxGeometry y="95" width="140" height="20" as="geometry" />
        </mxCell>
        <mxCell id="RCFOS49VJev1arpCxQu8-84" value="" style="line;strokeWidth=1;fillColor=none;align=left;verticalAlign=middle;spacingTop=-1;spacingLeft=3;spacingRight=3;rotatable=0;labelPosition=right;points=[];portConstraint=eastwest;" vertex="1" parent="RCFOS49VJev1arpCxQu8-80">
          <mxGeometry y="115" width="140" height="8" as="geometry" />
        </mxCell>
        <mxCell id="RCFOS49VJev1arpCxQu8-85" value="&lt;font style=&quot;font-size: 14px;&quot; color=&quot;#cc6600&quot;&gt;Métodos&lt;/font&gt;" style="text;html=1;strokeColor=none;fillColor=none;align=center;verticalAlign=middle;spacingLeft=4;spacingRight=4;overflow=hidden;rotatable=0;points=[[0,0.5],[1,0.5]];portConstraint=eastwest;whiteSpace=wrap;fontStyle=1;fontSize=14;" vertex="1" parent="RCFOS49VJev1arpCxQu8-80">
          <mxGeometry y="123" width="140" height="20" as="geometry" />
        </mxCell>
        <mxCell id="RCFOS49VJev1arpCxQu8-86" value="" style="endArrow=none;html=1;rounded=0;exitX=0.971;exitY=0.15;exitDx=0;exitDy=0;exitPerimeter=0;" edge="1" parent="1" source="RCFOS49VJev1arpCxQu8-81">
          <mxGeometry relative="1" as="geometry">
            <mxPoint x="790" y="369" as="sourcePoint" />
            <mxPoint x="906" y="350" as="targetPoint" />
          </mxGeometry>
        </mxCell>
        <mxCell id="RCFOS49VJev1arpCxQu8-87" value="N" style="text;html=1;align=center;verticalAlign=middle;resizable=0;points=[];autosize=1;strokeColor=none;fillColor=none;fontStyle=1;fontSize=13;" vertex="1" parent="1">
          <mxGeometry x="770" y="317" width="30" height="30" as="geometry" />
        </mxCell>
        <mxCell id="RCFOS49VJev1arpCxQu8-88" value="1" style="text;html=1;align=center;verticalAlign=middle;resizable=0;points=[];autosize=1;strokeColor=none;fillColor=none;fontStyle=1;labelBackgroundColor=default;fontSize=13;" vertex="1" parent="1">
          <mxGeometry x="880" y="317" width="30" height="30" as="geometry" />
        </mxCell>
        <mxCell id="RCFOS49VJev1arpCxQu8-89" value="" style="endArrow=none;html=1;rounded=0;exitX=0.5;exitY=1.1;exitDx=0;exitDy=0;exitPerimeter=0;entryX=0.5;entryY=0;entryDx=0;entryDy=0;" edge="1" parent="1">
          <mxGeometry relative="1" as="geometry">
            <mxPoint x="700" y="433" as="sourcePoint" />
            <mxPoint x="700" y="528" as="targetPoint" />
          </mxGeometry>
        </mxCell>
        <mxCell id="RCFOS49VJev1arpCxQu8-90" value="1" style="text;html=1;align=center;verticalAlign=middle;resizable=0;points=[];autosize=1;strokeColor=none;fillColor=none;fontStyle=1;labelBackgroundColor=default;fontSize=13;" vertex="1" parent="1">
          <mxGeometry x="700" y="500" width="30" height="30" as="geometry" />
        </mxCell>
        <mxCell id="RCFOS49VJev1arpCxQu8-91" value="N" style="text;html=1;align=center;verticalAlign=middle;resizable=0;points=[];autosize=1;strokeColor=none;fillColor=none;fontStyle=1;fontSize=13;" vertex="1" parent="1">
          <mxGeometry x="700" y="433" width="30" height="30" as="geometry" />
        </mxCell>
      </root>
    </mxGraphModel>
  </diagram>
</mxfile>
